<svg width="93" height="36" viewBox="0 0 93 36" fill="none" xmlns="http://www.w3.org/2000/svg">
<path d="M69.2305 10.2606C68.0072 9.96538 66.2209 9.69917 64.822 10.7824C63.088 12.1246 63.0578 14.4921 63.0118 18.075L63.0018 18.8296C62.9829 20.1138 63.0653 24.5819 65.7378 25.5703C66.0291 25.678 66.3259 25.8197 66.7084 25.8314C67.043 25.8889 67.3612 25.9096 67.638 25.9269C67.7789 25.9358 67.9286 25.9447 68.0946 25.9587C68.3041 25.9766 68.5871 26.0005 68.9129 26C69.8419 25.9994 71.22 25.573 72.0157 24.4005C72.4232 23.7994 72.6497 23.0466 72.122 20.8292C71.871 19.7767 71.0074 19.4362 69.9658 19.7058C68.9242 19.9742 68.5531 20.8025 68.8167 21.85C69.0192 22.6542 68.0003 22.6777 67.5996 22.5939C67.4983 22.5828 67.3782 22.5426 67.2329 22.4667C67.1178 22.1971 66.687 20.649 66.653 19.472H68.7827C68.8079 19.472 68.8337 19.4714 68.8588 19.4703C69.9665 19.4251 72.2314 18.6605 72.8635 16.0905C73.4969 13.5126 71.8647 10.8963 69.2305 10.2606ZM69.2941 15.3209C69.2595 15.4615 69.1802 15.7852 68.7727 15.8505L66.7077 15.8544C66.7511 14.8381 66.836 13.9613 67.0203 13.6304C67.148 13.612 67.5078 13.5941 68.2663 13.7788C68.9978 13.9569 69.4589 14.6489 69.2941 15.3209Z" fill="white"/>
<path d="M92.4481 2.57905C91.9792 2.12784 91.2885 1.92118 90.6041 2.02738C88.1584 2.40626 75.9992 4.56357 74.8618 10.1681C74.1896 13.4798 75.3022 15.1176 76.9943 16.9167C75.5315 17.6061 74.8116 18.0246 74.3033 19.1974C73.7238 20.5356 73.7708 23.539 76.2947 26.6653C76.6778 27.1407 77.263 27.4001 77.8654 27.4197C78.3159 27.4346 78.7753 27.3146 79.1674 27.0505C80.0855 26.4323 80.2851 25.2566 79.6128 24.4259C78.5345 23.0936 77.7873 22.0557 78.0363 20.4816C78.1336 19.8662 79.1744 19.3254 80.8887 19.6222C82.1341 19.8553 82.6672 20.1205 83.0891 20.4156C82.3057 22.4696 81.8634 24.6705 81.0876 26.6068C80.7858 27.3605 81.0806 28.2038 81.8031 28.6682C82.8629 29.3496 84.3472 28.9369 84.8054 27.837C90.4383 14.3197 93.1305 3.56241 92.9444 4.28113C93.1032 3.66804 92.917 3.03083 92.4481 2.57905ZM84.4197 16.83C83.8287 16.6658 82.4296 16.2141 81.1753 15.3323C79.2227 13.9609 78.443 13.0487 78.9037 10.7869C79.2265 9.20137 83.4615 7.42754 88.0765 6.35692C87.3369 8.87474 86.1486 12.0298 84.4197 16.83Z" fill="white"/>
<path d="M33.772 25.3753C33.69 25.3725 33.8608 25.3917 33.772 25.3753V25.3753Z" fill="white"/>
<path d="M48.9234 17.3671C47.8689 17.5577 46.8952 18.6609 47.0466 19.7968C47.0973 20.1775 47.2422 20.7382 47.2474 20.8779C47.2544 21.0736 47.087 21.2354 46.8766 21.2337C46.7073 21.2326 46.2916 21.2377 46.114 21.2337C45.8722 21.2281 45.672 21.0601 45.6387 20.8372C45.5482 20.2251 45.5534 18.9013 45.479 17.5849C45.4289 16.6984 45.2942 14.3174 45.4995 13.1695C45.5566 12.8522 45.894 12.4364 46.2358 12.4873C46.2403 12.4879 46.2455 12.489 46.2506 12.4896C46.5739 12.5393 47.0004 12.9048 46.9908 13.2091C46.9773 13.6176 46.7368 14.168 46.7137 14.4277C46.6111 15.5766 47.3865 16.5757 48.4462 16.66C49.5116 16.7471 50.6533 15.8493 50.7566 14.6981C50.8996 13.096 50.9971 9.79056 48.4308 8.94652C47.6117 8.67724 45.1243 7.85923 43.311 9.42624C41.4181 11.0628 41.4329 14.1143 41.6491 17.9345C41.8075 20.7393 41.9839 22.2616 42.5579 23.3252C43.4245 24.9306 44.8664 24.9997 45.9203 25.05L46.1165 25.0596C46.2025 25.0641 46.3006 25.0692 46.4097 25.0726C47.2846 25.1009 48.8406 25.0302 49.9349 23.7291C51.1805 22.2486 51.1863 20.5758 50.99 19.1089C50.838 17.9713 49.9792 17.177 48.9234 17.3671Z" fill="white"/>
<path d="M59.1055 17.7871C58.042 18.0662 57.6277 18.9357 57.8827 20.0273C58.0625 20.7969 57.9874 21.0918 57.9694 21.315C57.5243 21.9596 56.6515 21.9144 56.4441 21.5568C56.3645 21.1963 56.358 20.0663 56.3073 18.473L56.3028 18.3408C56.2572 16.9062 56.1936 14.9203 56.3612 13.7959C56.4345 13.3055 56.9482 12.9467 57.5063 13.0151C57.5108 13.0156 57.5153 13.0162 57.5198 13.0168C57.6431 13.0326 57.7337 13.1292 57.7337 13.2382C57.7343 13.6439 57.5642 14.1812 57.471 14.4976C56.8879 16.4865 58.0959 17.0419 59.1877 17.0899C60.2827 17.1385 61.2191 16.2627 61.2821 15.135C61.2898 14.9937 61.3 14.8468 61.3097 14.6954C61.4188 13.045 61.6218 9.97253 59.0946 9.26345C58.3194 9.04593 55.9637 8.38544 54.1789 9.85106C52.1385 11.5269 52.2374 14.618 52.3627 18.5318L52.3672 18.6634C52.4545 21.411 52.6966 22.7247 53.2926 23.6835C54.1911 25.1293 55.6079 25.2186 56.5468 25.2773C56.6907 25.2864 56.8436 25.296 57.0131 25.3101C57.227 25.3288 57.516 25.3536 57.8487 25.353C58.7972 25.3525 60.2044 24.9095 61.0168 23.6908C61.433 23.0665 61.8459 21.2573 61.3065 18.9538C61.0515 17.8605 60.1691 17.5074 59.1055 17.7871Z" fill="white"/>
<path d="M33.772 25.3753C33.69 25.3725 33.8608 25.3917 33.772 25.3753V25.3753Z" fill="white"/>
<path d="M26.4312 5.23092C26.3707 4.82119 26.1388 4.45159 25.7944 4.21592C25.674 4.13341 25.5422 4.07068 25.4059 4.02604L26.0444 2.72225C26.1592 2.48771 26.0602 2.20571 25.8233 2.09211C25.5863 1.97852 25.3012 2.07685 25.1864 2.31082L24.3443 4.02999L23.8907 4.11024L23.7358 2.92683C23.7018 2.66856 23.4632 2.48828 23.2019 2.51993C22.9406 2.55327 22.7562 2.79007 22.7902 3.04777L23.2403 6.48724C23.2715 6.72516 23.4767 6.8981 23.7126 6.8981C23.7329 6.8981 23.7533 6.89697 23.7742 6.89414C24.0355 6.8608 24.2199 6.624 24.186 6.3663L24.0135 5.04669L24.8126 4.90483C24.9664 4.87206 25.1225 4.90257 25.252 4.9913C25.3816 5.08003 25.4653 5.2134 25.4879 5.36769L25.6038 6.15098C25.6383 6.38551 25.8425 6.55449 26.0749 6.55449C26.0981 6.55449 26.1213 6.55279 26.1445 6.5494C26.4052 6.51154 26.5856 6.27248 26.5472 6.01478L26.4312 5.23092Z" fill="white"/>
<path d="M60.9117 1.29517C60.7019 1.13862 60.4027 1.17988 60.2438 1.38729L59.0968 2.88944L58.2491 2.84536L58.3899 1.47206C58.4165 1.21266 58.2253 0.981515 57.9634 0.955518C57.7005 0.929522 57.4674 1.11828 57.4409 1.37712L57.0484 5.20936C57.0218 5.46876 57.2129 5.6999 57.4748 5.7259C57.4912 5.72759 57.5076 5.72816 57.5234 5.72816C57.7655 5.72816 57.9725 5.54731 57.9974 5.3043L58.1529 3.78406L59.1019 3.83267C59.2914 3.83549 59.4661 3.91405 59.5934 4.05307C59.7206 4.1921 59.7823 4.37181 59.7659 4.55831L59.6907 5.43429C59.6686 5.69369 59.8632 5.922 60.1256 5.94405C60.1392 5.94518 60.1527 5.94574 60.1663 5.94574C60.4112 5.94574 60.6199 5.75981 60.6408 5.51397L60.716 4.638C60.7539 4.19436 60.6023 3.75072 60.3003 3.42068C60.2251 3.33873 60.1425 3.26526 60.0532 3.20084L61.0045 1.95526C61.164 1.74785 61.1221 1.45228 60.9117 1.29517Z" fill="white"/>
<path d="M30.0739 3.16764C30.0383 2.72683 29.8313 2.32614 29.4903 2.03961C29.1498 1.75309 28.7166 1.61519 28.2709 1.64967L28.0984 1.66323C27.1783 1.73613 26.49 2.53581 26.5635 3.44513L26.6545 4.5692C26.6902 5.01001 26.8972 5.4107 27.2382 5.69723C27.5436 5.95437 27.9237 6.09226 28.3207 6.09226C28.3659 6.09226 28.4117 6.09057 28.457 6.08718L28.6295 6.07361C29.0751 6.03801 29.4807 5.83343 29.7702 5.4966C30.0604 5.15977 30.2 4.73196 30.1644 4.29115L30.0739 3.16764ZM29.0452 4.88568C28.9202 5.03036 28.746 5.11852 28.5543 5.13378L28.3818 5.14734C28.1912 5.16317 28.0034 5.10326 27.8569 4.97949C27.7104 4.85629 27.6211 4.68392 27.6058 4.49403L27.5148 3.36996C27.4995 3.18008 27.5594 2.99584 27.6844 2.85116C27.8094 2.70648 27.9836 2.61832 28.1753 2.60306L28.3478 2.5895C28.3676 2.5878 28.3869 2.58724 28.4067 2.58724C28.5775 2.58724 28.7409 2.64658 28.8727 2.75735C29.0192 2.88055 29.1085 3.05292 29.1238 3.24281L29.2148 4.36688C29.2301 4.55677 29.1696 4.741 29.0452 4.88568Z" fill="white"/>
<path d="M50.6062 0.0464946C50.0248 0.0131511 49.4694 0.217168 49.0373 0.621811C48.6131 1.01854 48.3603 1.56221 48.3258 2.15222L48.2766 2.9892C48.2416 3.57921 48.4288 4.14831 48.8037 4.59138C49.1855 5.04293 49.7148 5.30968 50.2945 5.34302C50.3353 5.34529 50.376 5.34642 50.4167 5.34642C51.04 5.34642 51.627 5.07119 52.0421 4.57952C52.2107 4.37945 52.1841 4.08219 51.9816 3.91547C51.7797 3.74819 51.4788 3.77475 51.3097 3.97481C51.0631 4.26699 50.7119 4.42241 50.3494 4.40149C50.0355 4.38341 49.746 4.23591 49.535 3.98611C49.3365 3.75101 49.2285 3.45262 49.2262 3.1367L51.726 3.2859C51.9477 3.30003 52.1603 3.22543 52.3277 3.07849C52.5019 2.9259 52.6049 2.71341 52.619 2.48057L52.6241 2.39919C52.6959 1.17057 51.791 0.114877 50.6062 0.0464946ZM51.6723 2.33928L49.2788 2.1963C49.302 1.851 49.4485 1.53565 49.6934 1.30677C49.9326 1.08297 50.2386 0.971635 50.5507 0.988025C51.2085 1.02589 51.7107 1.63116 51.6723 2.33928Z" fill="white"/>
<path d="M33.7746 4.25951C33.5574 4.11201 33.2605 4.16683 33.1112 4.38102C32.941 4.62629 32.6712 4.77323 32.3714 4.78453C32.1215 4.79527 31.8811 4.70654 31.6973 4.53756C31.5129 4.36858 31.4066 4.13913 31.397 3.89104L31.363 3.00093C31.3432 2.48891 31.7488 2.05658 32.2668 2.03736C32.5123 2.02832 32.7492 2.11309 32.9319 2.27586C33.1276 2.45048 33.429 2.43466 33.6055 2.24195C33.7819 2.04867 33.7667 1.75027 33.571 1.57621C33.2028 1.24729 32.7255 1.07605 32.2306 1.09527C31.1872 1.13426 30.3705 2.00572 30.4101 3.0371L30.444 3.92721C30.4632 4.42679 30.6781 4.88908 31.0486 5.2293C31.4015 5.55256 31.8556 5.72832 32.3341 5.72832C32.3584 5.72832 32.3833 5.72775 32.4076 5.72719C33.0026 5.70515 33.5597 5.40167 33.8973 4.91564C34.0466 4.70032 33.9918 4.40701 33.7746 4.25951Z" fill="white"/>
<path d="M55.2066 0.540464C54.6704 0.489036 54.1433 0.654058 53.7265 1.00614C53.3148 1.35371 53.0586 1.84256 53.006 2.38283L52.9081 3.37749C52.855 3.91776 53.0111 4.44617 53.3481 4.86551C53.6886 5.28993 54.1727 5.5516 54.7106 5.60359C54.7728 5.60981 54.835 5.61263 54.8972 5.61263C55.4656 5.61263 56.0176 5.36566 56.4027 4.93107C56.5764 4.73553 56.5566 4.43713 56.3586 4.26589C56.1607 4.09409 55.8592 4.11387 55.6856 4.30997C55.4571 4.56768 55.1364 4.6971 54.8028 4.66545C54.5251 4.63889 54.2734 4.50156 54.0953 4.28002C53.9131 4.05283 53.8283 3.76518 53.8577 3.46961L53.9556 2.47495C53.9844 2.17938 54.1235 1.91263 54.3464 1.72444C54.5641 1.5402 54.8378 1.4543 55.1155 1.4803C55.3881 1.5063 55.6364 1.63967 55.814 1.85499C55.9803 2.05675 56.28 2.0867 56.4847 1.92224C56.6889 1.75778 56.7189 1.46052 56.5526 1.25876C56.2121 0.845642 55.7342 0.591327 55.2066 0.540464Z" fill="white"/>
<path d="M37.9399 0.532558C37.7154 0.493563 37.4943 0.616765 37.4122 0.826998L36.3009 3.66798L35.1172 1.10618C35.0228 0.902162 34.796 0.792524 34.576 0.842822C34.3554 0.893685 34.201 1.09092 34.2072 1.31528L34.3101 5.04693C34.3175 5.30294 34.529 5.50526 34.7863 5.50526C34.7909 5.50526 34.7954 5.50526 34.7999 5.50526C35.0629 5.49791 35.2705 5.28146 35.2637 5.02093L35.2247 3.60581L35.9045 5.07688C35.9842 5.24925 36.1607 5.35493 36.3524 5.35211C36.5441 5.34646 36.7138 5.22778 36.7828 5.05088L37.4281 3.40179L37.4581 4.93673C37.4631 5.19387 37.6758 5.39901 37.9348 5.39901C37.9382 5.39901 37.941 5.39901 37.9444 5.39901C38.208 5.39393 38.4173 5.17861 38.4122 4.91864L38.3347 0.987499C38.3296 0.762572 38.1644 0.572118 37.9399 0.532558Z" fill="white"/>
<path d="M42.8105 0.0449219C42.5469 0.0449219 42.3337 0.255721 42.3337 0.516252V4.11735C41.9339 4.24733 41.0861 4.41292 40.4792 4.18404C40.2004 4.07892 40.02 3.90825 39.9159 3.64998V0.844601C39.9159 0.584069 39.7027 0.373271 39.4392 0.373271C39.1756 0.373271 38.9624 0.584069 38.9624 0.844601V3.73249C38.9624 3.78279 38.9703 3.83308 38.9867 3.88112C39.2163 4.56551 39.744 5.01197 40.5126 5.17361C40.7275 5.21882 40.9566 5.23803 41.1868 5.23803C42.0622 5.23803 42.9575 4.95772 43.1634 4.73449C43.2431 4.64746 43.2872 4.53443 43.2872 4.41744V0.516252C43.2872 0.256286 43.074 0.0449219 42.8105 0.0449219Z" fill="white"/>
<path d="M47.3009 0.0463418C47.0283 0.0423858 46.8179 0.243577 46.81 0.504108L46.7348 3.05517L45.7168 3.0546C45.5086 3.06195 45.2886 2.97492 45.1195 2.81385C44.951 2.65278 44.8548 2.44029 44.856 2.23175L44.8656 0.474156C44.8673 0.213624 44.6546 0.00169543 44.3911 0C44.1287 0.00508629 43.9132 0.208538 43.9115 0.469069L43.9019 2.22667C43.8996 2.69121 44.1015 3.15237 44.4567 3.49146C44.796 3.81585 45.2428 3.99839 45.6749 3.99839C45.6947 3.99839 45.7151 3.99783 45.7349 3.99726L46.7071 3.99783L46.6827 4.81785C46.6754 5.07782 46.8824 5.2954 47.1454 5.30274C47.1505 5.30274 47.155 5.30274 47.1595 5.30274C47.4168 5.30274 47.6284 5.10042 47.6357 4.84498L47.763 0.53067C47.7709 0.270704 47.5639 0.0536886 47.3009 0.0463418Z" fill="white"/>
<path d="M64.2096 1.79607C63.6293 1.49597 62.7301 1.40273 61.9451 2.04247C61.7415 2.20806 61.7127 2.50532 61.8801 2.70595C62.0475 2.90714 62.3484 2.93596 62.5514 2.77037C63.087 2.33465 63.618 2.55449 63.7679 2.63191C64.0281 2.76642 64.1389 2.95348 64.1321 3.03769C64.1265 3.10607 64.1191 3.18519 64.1106 3.27166C62.9971 3.04842 62.2466 3.10381 61.7664 3.4412C61.461 3.65595 61.2777 3.98148 61.2376 4.38273C61.1414 5.33952 61.8614 6.12111 62.9495 6.24205C63.1006 6.25901 63.2419 6.26579 63.3737 6.26579C64.0767 6.26579 64.4981 6.0629 64.5512 6.03521C64.692 5.96344 64.7876 5.82667 64.8057 5.67126C64.8142 5.59666 65.0218 3.83567 65.0817 3.11511C65.1241 2.60931 64.782 2.09164 64.2096 1.79607ZM63.8935 5.26661C63.7136 5.30787 63.428 5.34573 63.0564 5.30448C62.4926 5.24175 62.1431 4.90888 62.1866 4.47541C62.203 4.31096 62.2624 4.24879 62.3189 4.20923C62.3913 4.15837 62.5638 4.08094 62.9456 4.08094C63.199 4.08094 63.5439 4.11485 64.0128 4.21375C63.9681 4.61444 63.9229 5.00891 63.8935 5.26661Z" fill="white"/>
<path d="M68.9462 2.46591C68.1827 2.05957 66.6913 1.64815 65.9454 2.68066C65.5404 3.24072 65.4234 3.86973 65.6145 4.45126C65.6943 4.69371 65.8255 4.91072 65.9912 5.0927L65.4629 5.67706C65.2876 5.8709 65.3046 6.1693 65.5008 6.3428C65.5919 6.42305 65.7056 6.46261 65.8187 6.46261C65.9499 6.46261 66.08 6.40948 66.1744 6.3055L66.8163 5.59511C67.232 5.71718 67.6488 5.76013 67.9311 5.77426L67.8728 6.31737C67.8451 6.5762 68.0351 6.80847 68.297 6.83617C68.3139 6.83786 68.3309 6.83899 68.3479 6.83899C68.5888 6.83899 68.7958 6.65928 68.8218 6.4174L69.1951 2.93159C69.2149 2.74 69.117 2.5569 68.9462 2.46591ZM68.0317 4.83443C67.7914 4.82538 67.3836 4.79091 67.0052 4.66658C66.7858 4.59424 66.6003 4.4004 66.5217 4.16021C66.4544 3.95506 66.434 3.62671 66.7213 3.22885C66.8565 3.04179 67.0788 2.9768 67.3208 2.9768C67.6313 2.9768 67.9746 3.08305 68.2093 3.17347L68.0317 4.83443Z" fill="white"/>
<path fill-rule="evenodd" clip-rule="evenodd" d="M38.2199 9.0818C39.1134 9.24739 39.7741 10.0262 39.8198 10.9609C39.8688 11.9706 39.929 14.1595 39.9991 16.7078L40.0036 16.8723C40.0614 19.0052 40.1219 21.2104 40.1836 23.0448C40.2215 24.1785 39.357 25.1438 38.2533 25.2008C37.1478 25.2591 36.228 24.3876 36.1901 23.2567C36.1676 22.589 36.1454 21.488 36.1234 20.4022C36.1058 19.5307 36.0884 18.669 36.0712 18.0489C35.8124 18.5955 35.2437 20.0289 34.7347 21.3122C34.2905 22.4318 33.8917 23.4371 33.7836 23.6393C33.5338 24.106 32.9865 24.8272 32.2249 25.1749C31.9937 23.808 31.5083 22.8419 30.9171 22.1645C30.4445 21.623 29.9219 21.2862 29.4514 21.08C29.3174 18.5605 29.2258 14.9262 29.3833 11.4588C29.434 10.3308 30.3609 9.43671 31.4542 9.46215C32.5489 9.48701 33.3954 10.424 33.3439 11.5543C33.323 12.0163 33.2831 12.678 33.2388 13.4113C33.1461 14.9495 33.0343 16.8026 33.0386 17.7873C33.0887 17.6807 33.6027 16.3357 34.1762 14.8348C34.913 12.9068 35.7481 10.7215 35.8244 10.5738C36.0493 10.1369 36.7364 8.80771 38.2199 9.0818ZM29.5659 22.8612C29.5869 23.1318 29.6077 23.3699 29.6275 23.5715C29.6888 24.1959 30.0052 24.728 30.4754 25.0552C30.3268 24.0635 30.0786 23.4425 29.702 23.011C29.6564 22.9587 29.611 22.9088 29.5659 22.8612Z" fill="white"/>
<path fill-rule="evenodd" clip-rule="evenodd" d="M2.43152 2.89826C3.95486 1.85557 5.97634 1.87478 8.44326 2.95986C12.6962 4.83084 14.8231 9.03669 15.598 12.9232C15.323 13.3566 15.1196 13.7305 15.03 13.9605C14.8795 14.3467 14.8607 14.7889 14.8777 15.142C14.895 15.501 14.9532 15.8337 15.006 16.0455L16.0171 20.6684C16.0246 21.0563 16.032 21.4466 16.0391 21.8297C15.5879 22.1312 15.1407 22.575 14.8054 23.2423C14.3044 24.2393 14.0811 25.6797 14.3696 27.7917C14.3789 27.8604 14.4006 27.9253 14.4323 27.9847C13.8912 28.2344 13.3013 28.3611 12.8037 28.4524C12.3487 28.536 11.8782 28.5609 11.4 28.5292C10.0797 28.4411 8.70293 28.2416 7.39941 27.3255C4.005 24.9394 0.745558 18.8709 0.225565 13.7733C-0.400484 7.63586 0.258345 4.38628 2.43152 2.89826ZM15.9904 26.1729C16.043 25.9504 16.0733 25.7053 16.0773 25.4351C16.0796 25.2814 16.0804 25.0942 16.0799 24.8797C16.0178 25.2462 15.9838 25.6738 15.9904 26.1729ZM12.0473 24.95C12.325 24.909 12.5678 24.8731 12.636 24.5489C12.7478 24.0169 12.6544 21.2608 12.5756 18.9396C12.5417 17.9396 12.5106 17.0203 12.4997 16.3945C12.4239 12.0513 10.4924 7.75285 6.80936 6.1241C6.01362 5.77202 5.4255 5.62903 5.03148 5.60756C4.77567 5.59343 4.60212 5.63073 4.50699 5.69572C4.19397 5.90991 3.22147 7.09332 3.86166 13.3506C4.37201 18.3431 7.06325 22.7342 9.11301 24.1703C10.0502 24.827 11.211 25.1011 11.8885 24.9756C11.942 24.9656 11.9953 24.9577 12.0473 24.95Z" fill="white"/>
<path fill-rule="evenodd" clip-rule="evenodd" d="M27.3671 30.0948C27.1656 30.5484 27.0853 31.0424 27.1607 31.4518C27.3461 32.4588 29.9671 34.6119 29.9671 34.6119C29.9671 34.6119 31.6372 31.8516 31.4518 30.8447C31.4309 30.7307 31.3974 30.6136 31.3528 30.4959C31.0351 30.564 30.4514 30.6672 29.9163 30.6877C29.3328 30.7099 28.3898 30.6929 27.3671 30.0948ZM30.2035 29.0868C30.0863 29.0993 29.9685 29.1088 29.8561 29.113C29.4983 29.1267 29.0151 29.1259 28.4708 28.8904C28.6112 28.8253 28.7602 28.7796 28.9167 28.7575C29.3659 28.6939 29.8122 28.8337 30.2035 29.0868Z" fill="url(#paint0_linear_1360_40560)"/>
<path d="M27.37 23.9351L27.3379 21.7068L27.7338 21.4395C29.4339 21.926 30.1692 23.166 30.5632 24.476L31.1752 28.6021C31.2819 28.9576 31.1488 29.2452 30.7445 29.3396L30.1455 29.5074C29.1215 29.7459 27.8707 29.2995 27.1489 28.0669C26.769 27.4181 26.7086 26.1053 26.5659 25.6311C27.28 25.2491 27.3899 24.6692 27.37 23.9351Z" fill="white"/>
<path fill-rule="evenodd" clip-rule="evenodd" d="M18.9186 29.5114C18.5629 29.3379 18.1775 29.2547 17.7899 29.3099C17.3239 29.3763 16.9181 29.6341 16.5983 29.9889C16.8257 30.0253 17.1136 30.0595 17.3656 30.0595C17.6323 30.0595 17.9309 30.0421 18.2605 29.9134C18.4551 29.8374 18.6784 29.7154 18.9186 29.5114ZM20.1088 30.5604C19.6864 30.9569 19.2544 31.2169 18.8335 31.3813C18.2357 31.6147 17.7086 31.6353 17.3656 31.6353C16.7951 31.6353 16.1685 31.5205 15.918 31.4627C15.904 31.4594 15.8902 31.4559 15.8765 31.4519C15.8194 31.7458 15.811 32.0349 15.8583 32.2935C16.0622 33.4086 18.9454 35.793 18.9454 35.793C18.9454 35.793 20.7824 32.7363 20.5785 31.6212C20.5152 31.275 20.3481 30.9031 20.1088 30.5604Z" fill="url(#paint1_linear_1360_40560)"/>
<path d="M18.8211 24.3151L18.4155 22.2908L17.8955 22.0664C16.3304 22.8271 15.9794 24.1281 15.874 25.4799L16.1016 29.7693C16.0733 30.1361 16.2661 30.3966 16.6833 30.4215L17.3074 30.4865C18.3641 30.5498 19.496 29.9038 19.9395 28.5735C20.1728 27.8733 20.0095 26.4378 20.0481 25.9489C19.2639 25.6918 18.9593 25.0396 18.8211 24.3151Z" fill="white"/>
<path fill-rule="evenodd" clip-rule="evenodd" d="M27.3557 25.1717C24.8701 26.5031 21.3002 26.5608 18.5981 25.6238L16.4937 14.9821C16.3792 13.7207 18.7909 10.3242 21.3838 9.54883C23.9908 9.90091 27.2143 12.114 27.5266 14.0553L27.7998 24.1346L27.3557 25.1717ZM22.8444 22.4085C24.6628 22.3187 25.9792 20.3152 25.7831 17.9331C25.5877 15.5511 23.6852 12.6739 21.8668 12.7638C20.0478 12.8536 19.0007 15.876 19.1968 18.2581C19.3922 20.6402 21.0254 22.4984 22.8444 22.4085Z" fill="white"/>
<path fill-rule="evenodd" clip-rule="evenodd" d="M25.6348 24.6939C25.9014 24.6234 26.1567 24.8241 26.137 25.0939L26.1217 25.3006L26.1189 25.3069L26.083 25.2908C26.1189 25.3069 26.1189 25.3069 26.1189 25.3069L26.1189 25.307L26.1188 25.3071L26.1186 25.3076L26.1178 25.3093C26.1171 25.3108 26.1162 25.3129 26.1149 25.3156C26.1123 25.3209 26.1085 25.3286 26.1033 25.3384C26.093 25.358 26.0775 25.386 26.0562 25.4201C26.0137 25.4884 25.948 25.5814 25.8551 25.6815C25.6691 25.8819 25.3738 26.1106 24.9368 26.2251L24.9168 26.1489C25.3366 26.0389 25.6194 25.8196 25.7973 25.6279C25.8863 25.5321 25.949 25.4432 25.9894 25.3785C26.0095 25.3461 26.0241 25.3199 26.0335 25.3018C26.0383 25.2928 26.0417 25.2859 26.0439 25.2813C26.044 25.2811 26.0441 25.2809 26.0442 25.2807L26.0584 25.0882C26.0739 24.8761 25.8729 24.7124 25.6549 24.7701C25.4366 24.8276 24.3067 25.0731 23.1934 25.1468C22.0801 25.221 20.9766 25.1239 20.7524 25.0955C20.5278 25.0674 20.3489 25.2567 20.3913 25.4652L20.4294 25.6518C20.4331 25.6561 20.4386 25.6625 20.4459 25.6706C20.4612 25.6876 20.4846 25.7124 20.5161 25.7425C20.5791 25.8029 20.6746 25.8849 20.8038 25.9705C21.062 26.1418 21.455 26.3278 21.9923 26.3846L21.984 26.463C21.4323 26.4046 21.0275 26.2134 20.7603 26.0362C20.6267 25.9476 20.5276 25.8626 20.4616 25.7994C20.4286 25.7679 20.4039 25.7417 20.3873 25.7234C20.3791 25.7142 20.3728 25.7069 20.3686 25.7019C20.3664 25.6994 20.3648 25.6974 20.3637 25.696L20.3624 25.6944L20.362 25.694L20.3619 25.6938L20.3619 25.6938C20.3618 25.6938 20.3618 25.6937 20.3927 25.6693L20.3618 25.6937L20.356 25.6864L20.3141 25.4809C20.2601 25.2157 20.4882 24.983 20.7622 25.0173L20.7623 25.0173C20.9827 25.0453 22.081 25.142 23.1882 25.0682C24.2955 24.9949 25.4203 24.7504 25.6348 24.6939Z" fill="#2E0D6F"/>
<path fill-rule="evenodd" clip-rule="evenodd" d="M19.7915 22.0625C20.2266 22.065 20.5968 22.3909 20.6431 22.8181C20.6952 23.2946 20.7579 23.8609 20.8077 24.3081C20.8326 24.5317 20.8542 24.7255 20.8696 24.8634C20.8773 24.9324 20.8835 24.9873 20.8877 25.0251L20.8942 25.0833C20.8942 25.0833 20.8942 25.0833 20.8551 25.0877C20.8159 25.0921 20.8159 25.0921 20.8159 25.0921L20.8159 25.092L20.8094 25.0339C20.8052 24.9961 20.799 24.9411 20.7913 24.8722C20.7759 24.7342 20.7543 24.5404 20.7294 24.3168C20.6796 23.8696 20.6169 23.3032 20.5648 22.8266C20.5229 22.4406 20.1875 22.1436 19.7911 22.1413H19.7842L19.7842 22.0625H19.7915Z" fill="#2E0D6F"/>
<path d="M19.8045 22.097C19.8145 22.1693 19.7716 22.2333 19.7092 22.2398C19.6469 22.2462 19.5881 22.1928 19.5781 22.1205C19.5681 22.0476 19.611 21.9836 19.6734 21.9771C19.7363 21.9706 19.7951 22.0241 19.8045 22.097Z" fill="#2E0D6F"/>
<path fill-rule="evenodd" clip-rule="evenodd" d="M26.0106 21.6604L26.01 21.6605C25.6231 21.7429 25.3549 22.1008 25.3917 22.4862C25.4373 22.9619 25.4906 23.5277 25.5324 23.9746C25.5533 24.198 25.5714 24.3917 25.5842 24.5295C25.5906 24.5984 25.5957 24.6534 25.5992 24.6911L25.6046 24.7493C25.6046 24.7493 25.6046 24.7493 25.5654 24.753C25.5262 24.7566 25.5262 24.7566 25.5262 24.7566L25.5208 24.6984C25.5173 24.6607 25.5122 24.6057 25.5057 24.5368C25.4929 24.399 25.4748 24.2053 25.4539 23.9819C25.4121 23.5351 25.3589 22.9694 25.3133 22.4937C25.2726 22.0673 25.5686 21.6743 25.9929 21.5836L25.9976 21.5825L25.9983 21.5823L25.9993 21.582L26.0184 21.6585L26.0106 21.6604Z" fill="#2E0D6F"/>
<path d="M25.9876 21.6205C25.9929 21.6933 26.0476 21.7474 26.11 21.7409C26.1723 21.7345 26.2187 21.6704 26.214 21.5976C26.2087 21.5247 26.1541 21.4706 26.0917 21.4771C26.0294 21.483 25.9829 21.5476 25.9876 21.6205Z" fill="#2E0D6F"/>
<path d="M18.3595 13.8643C18.5086 13.8403 18.6014 13.6473 18.5668 13.4333C18.5323 13.2193 18.3834 13.0652 18.2343 13.0893C18.0852 13.1133 17.9924 13.3063 18.0269 13.5203C18.0615 13.7344 18.2104 13.8884 18.3595 13.8643Z" fill="#2E0D6F"/>
<path d="M25.4703 13.0694C25.6194 13.0454 25.7122 12.8524 25.6777 12.6384C25.6431 12.4243 25.4942 12.2703 25.3452 12.2944C25.1961 12.3184 25.1032 12.5114 25.1378 12.7254C25.1723 12.9394 25.3212 13.0934 25.4703 13.0694Z" fill="#2E0D6F"/>
<path fill-rule="evenodd" clip-rule="evenodd" d="M22.9715 22.3887L23.2303 25.1024L23.1518 25.1099L22.8931 22.3962L22.9715 22.3887Z" fill="#2E0D6F"/>
<path fill-rule="evenodd" clip-rule="evenodd" d="M23.1221 9.53906L23.1581 9.55512C23.194 9.57118 23.194 9.57119 23.194 9.5712L23.194 9.57122L23.194 9.57132L23.1938 9.57168L23.1932 9.57306L23.1908 9.57835C23.1887 9.58297 23.1856 9.58974 23.1816 9.59839C23.1737 9.61569 23.1621 9.64051 23.1475 9.67073C23.1185 9.73112 23.0777 9.81322 23.0308 9.89988C22.9839 9.98644 22.9305 10.0781 22.8763 10.1575C22.8227 10.2358 22.7659 10.3058 22.7114 10.3456L22.6875 10.3631L22.664 10.3449C22.3162 10.0742 21.8387 9.97471 21.3934 10.0102C20.9471 10.0458 20.5432 10.2161 20.3385 10.4729L20.3246 10.4903L20.3025 10.4874L20.3077 10.4483C20.3025 10.4874 20.3025 10.4874 20.3025 10.4874L20.3024 10.4874L20.3023 10.4874L20.3019 10.4873L20.3005 10.4871C20.2993 10.4869 20.2976 10.4867 20.2954 10.4864C20.291 10.4857 20.2847 10.4846 20.2766 10.4832C20.2605 10.4803 20.2374 10.4757 20.2091 10.4689C20.1525 10.4554 20.0749 10.433 19.9902 10.3976C19.8218 10.327 19.6211 10.2026 19.5083 9.98835L19.578 9.95165C19.6787 10.1429 19.8602 10.2577 20.0207 10.3249C20.1005 10.3583 20.174 10.3795 20.2274 10.3923C20.2541 10.3987 20.2757 10.403 20.2905 10.4056C20.2909 10.4057 20.2912 10.4058 20.2916 10.4058C20.5188 10.136 20.9389 9.96743 21.3872 9.93168C21.836 9.89588 22.3226 9.99232 22.6874 10.2636C22.725 10.2297 22.7674 10.1772 22.8112 10.113C22.8633 10.0368 22.9153 9.94768 22.9615 9.86235C23.0077 9.77713 23.0479 9.69623 23.0765 9.6366C23.0908 9.6068 23.1023 9.58235 23.1101 9.56538C23.114 9.5569 23.117 9.55028 23.1191 9.54581L23.1214 9.54073L23.1219 9.53946L23.1221 9.53915L23.1221 9.53908L23.1221 9.53906Z" fill="#2E0D6F"/>
<path fill-rule="evenodd" clip-rule="evenodd" d="M21.6184 13.1428L21.4214 9.99124L21.5 9.98633L21.697 13.1378L21.6184 13.1428Z" fill="#2E0D6F"/>
<path fill-rule="evenodd" clip-rule="evenodd" d="M27.6836 27.0521C27.5846 27.2549 27.5449 27.5215 27.5905 27.8034C27.636 28.0854 27.7576 28.3259 27.9154 28.4873C28.0732 28.6488 28.2645 28.7286 28.4522 28.6984C28.6399 28.6681 28.7963 28.5322 28.8953 28.3293C28.9943 28.1265 29.034 27.8599 28.9884 27.578C28.9429 27.2961 28.8213 27.0555 28.6635 26.8941C28.5057 26.7326 28.3144 26.6528 28.1267 26.6831C27.939 26.7133 27.7826 26.8492 27.6836 27.0521ZM27.6128 27.0175C27.7196 26.7986 27.8944 26.6407 28.1142 26.6053C28.334 26.5698 28.5495 26.6648 28.7199 26.839C28.8903 27.0134 29.0184 27.2694 29.0662 27.5655C29.114 27.8615 29.073 28.1448 28.9661 28.3639C28.8593 28.5828 28.6845 28.7407 28.4647 28.7761C28.2449 28.8116 28.0294 28.7166 27.859 28.5424C27.6886 28.3681 27.5605 28.112 27.5127 27.816C27.4649 27.5199 27.5059 27.2366 27.6128 27.0175Z" fill="#2E0D6F"/>
<path fill-rule="evenodd" clip-rule="evenodd" d="M17.9774 29.1145C18.0889 29.3109 18.2534 29.4368 18.4426 29.4554C18.6319 29.4739 18.8178 29.3824 18.9653 29.2114C19.1128 29.0406 19.2192 28.7929 19.2471 28.5087C19.275 28.2245 19.2188 27.9608 19.1074 27.7646C18.996 27.5682 18.8315 27.4423 18.6422 27.4237C18.453 27.4052 18.2671 27.4967 18.1195 27.6677C17.9721 27.8385 17.8657 28.0862 17.8378 28.3704C17.8098 28.6547 17.866 28.9183 17.9774 29.1145ZM17.9089 29.1534C17.7886 28.9414 17.73 28.6612 17.7594 28.3627C17.7887 28.0643 17.9006 27.8008 18.0599 27.6162C18.2191 27.4317 18.4283 27.3236 18.6499 27.3453C18.8715 27.3671 19.0557 27.5138 19.176 27.7257C19.2963 27.9377 19.3548 28.2179 19.3255 28.5164C19.2962 28.8148 19.1842 29.0783 19.0249 29.2629C18.8657 29.4474 18.6565 29.5555 18.4349 29.5338C18.2133 29.512 18.0291 29.3653 17.9089 29.1534Z" fill="#2E0D6F"/>
<defs>
<linearGradient id="paint0_linear_1360_40560" x1="29.4571" y1="29.1558" x2="29.2995" y2="34.7104" gradientUnits="userSpaceOnUse">
<stop stop-color="white"/>
<stop offset="1" stop-color="white" stop-opacity="0"/>
</linearGradient>
<linearGradient id="paint1_linear_1360_40560" x1="18.2307" y1="30.1596" x2="18.664" y2="36.0884" gradientUnits="userSpaceOnUse">
<stop stop-color="white"/>
<stop offset="1" stop-color="white" stop-opacity="0"/>
</linearGradient>
</defs>
</svg>
